<svg viewBox="0 0 1216 869.8181818181818" xmlns="http://www.w3.org/2000/svg"><title>ESM vs. CJS on npm</title>
<style>
text { font-size: 24px; font-weight: bolder; font-family: -apple-system,BlinkMacSystemFont,"Segoe UI",Helvetica,Arial,sans-serif,"Apple Color Emoji","Segoe UI Emoji"; font-variant-numeric: tabular-nums; paint-order: stroke; dominant-baseline: middle; }
.b { fill: white; }
.esm { fill: white; }
.dual { fill: url(#a); }
.faux { fill: url(#b); }
.cjs { fill: url(#c); }
.esm, .dual, .faux, .cjs { stroke: #0d1117; stroke-width: 3px; }
text { fill: #0d1117; stroke: white; stroke-width: 3px; }
pattern line { stroke: #0d1117; stroke-width: 2px }
pattern rect { fill: #0d1117 }

@media (prefers-color-scheme: dark) {
  .b { fill: #0d1117; }
  .cjs, .dual, .esm, .faux { stroke: white; }
  .esm { fill: #0d1117; }
  text { fill: white; stroke: #0d1117; }
  pattern line { stroke: white; }
  pattern rect { fill: white }
}
</style>
<defs>
<pattern id="a" height="6" patternUnits="userSpaceOnUse" width="6" x="0" y="0"><line x1="0" y1="0" x2="0" y2="6"></line></pattern>
<pattern id="b" height="6" patternUnits="userSpaceOnUse" width="6" x="0" y="0"><line x1="0" y1="0" x2="6" y2="0"></line></pattern>
<pattern id="c" height="6" patternUnits="userSpaceOnUse" width="6" x="0" y="0"><rect height="1" width="1" x="0" y="0"></rect></pattern></defs>
<rect class="b" height="869.8181818181818" width="1216" x="0" y="0"></rect>
<g><g>
<rect class="esm" height="37.81818181818182" width="58.280220758411964" x="32" y="32"></rect>
<rect class="dual" height="37.81818181818182" width="16.23642513797401" x="90.28022075841196" y="32"></rect>
<rect class="faux" height="37.81818181818182" width="142.19690226099343" x="106.51664589638597" y="32"></rect>
<rect class="cjs" height="37.81818181818182" width="743.2864518426206" x="248.7135481573794" y="32"></rect>
<text text-anchor="middle" transform="translate(61.14011037920598, 50.90909090909091) rotate(-45)">6.1%</text>
<text text-anchor="middle" transform="translate(98.39843332739896, 50.90909090909091) rotate(-45)">1.7%</text>
<text text-anchor="middle" transform="translate(177.61509702688267, 50.90909090909091)">14.8%</text>
<text text-anchor="middle" transform="translate(620.3567740786897, 50.90909090909091)">77.4%</text>
<text x="1024" y="50.90909090909091">2021-08-24</text>
</g><g>
<rect class="esm" height="37.81818181818182" width="69.87072782008146" x="32" y="101.81818181818181"></rect>
<rect class="dual" height="37.81818181818182" width="20.230210731361783" x="101.87072782008146" y="101.81818181818181"></rect>
<rect class="faux" height="37.81818181818182" width="137.5314326190898" x="122.10093855144324" y="101.81818181818181"></rect>
<rect class="cjs" height="37.81818181818182" width="732.367628829467" x="259.632371170533" y="101.81818181818181"></rect>
<text text-anchor="middle" transform="translate(66.93536391004073, 120.72727272727272) rotate(-45)">7.3%</text>
<text text-anchor="middle" transform="translate(111.98583318576235, 120.72727272727272) rotate(-45)">2.1%</text>
<text text-anchor="middle" transform="translate(190.86665486098815, 120.72727272727272)">14.3%</text>
<text text-anchor="middle" transform="translate(625.8161855852666, 120.72727272727272)">76.3%</text>
<text x="1024" y="120.72727272727272">2021-11-09</text>
</g><g>
<rect class="esm" height="37.81818181818182" width="83.0415068015347" x="32" y="171.63636363636363"></rect>
<rect class="dual" height="37.81818181818182" width="34.65643529822113" x="115.0415068015347" y="171.63636363636363"></rect>
<rect class="faux" height="37.81818181818182" width="132.43111266131845" x="149.69794209975583" y="171.63636363636363"></rect>
<rect class="cjs" height="37.81818181818182" width="709.8709452389257" x="282.12905476107426" y="171.63636363636363"></rect>
<text text-anchor="middle" transform="translate(73.52075340076735, 190.54545454545453) rotate(-45)">8.7%</text>
<text text-anchor="middle" transform="translate(132.36972445064526, 190.54545454545453) rotate(-45)">3.6%</text>
<text text-anchor="middle" transform="translate(215.91349843041507, 190.54545454545453)">13.8%</text>
<text text-anchor="middle" transform="translate(637.0645273805371, 190.54545454545453)">73.9%</text>
<text x="1024" y="190.54545454545453">2022-08-01</text>
</g><g>
<rect class="esm" height="37.81818181818182" width="86.52862362971985" x="32" y="241.45454545454544"></rect>
<rect class="dual" height="37.81818181818182" width="36.08143379154342" x="118.52862362971985" y="241.45454545454544"></rect>
<rect class="faux" height="37.81818181818182" width="131.12928484426658" x="154.61005742126326" y="241.45454545454544"></rect>
<rect class="cjs" height="37.81818181818182" width="706.2606577344701" x="285.73934226552984" y="241.45454545454544"></rect>
<text text-anchor="middle" transform="translate(75.26431181485992, 260.3636363636364) rotate(-45)">9.0%</text>
<text text-anchor="middle" transform="translate(136.56934052549155, 260.3636363636364) rotate(-45)">3.8%</text>
<text text-anchor="middle" transform="translate(220.17469984339655, 260.3636363636364)">13.7%</text>
<text text-anchor="middle" transform="translate(638.8696711327649, 260.3636363636364)">73.6%</text>
<text x="1024" y="260.3636363636364">2022-11-04</text>
</g><g>
<rect class="esm" height="37.81818181818182" width="96.92307692307692" x="32" y="311.27272727272725"></rect>
<rect class="dual" height="37.81818181818182" width="64.15384615384615" x="128.9230769230769" y="311.27272727272725"></rect>
<rect class="faux" height="37.81818181818182" width="120.46153846153845" x="193.07692307692304" y="311.27272727272725"></rect>
<rect class="cjs" height="37.81818181818182" width="678.4615384615385" x="313.5384615384615" y="311.27272727272725"></rect>
<text text-anchor="middle" transform="translate(80.46153846153845, 330.1818181818182) rotate(-45)">10.1%</text>
<text text-anchor="middle" transform="translate(160.99999999999997, 330.1818181818182) rotate(-45)">6.7%</text>
<text text-anchor="middle" transform="translate(253.30769230769226, 330.1818181818182) rotate(-45)">12.5%</text>
<text text-anchor="middle" transform="translate(652.7692307692307, 330.1818181818182)">70.7%</text>
<text x="1024" y="330.1818181818182">2023-05-29</text>
</g><g>
<rect class="esm" height="37.81818181818182" width="103.34995599882663" x="32" y="381.09090909090907"></rect>
<rect class="dual" height="37.81818181818182" width="71.80991493106482" x="135.34995599882663" y="381.09090909090907"></rect>
<rect class="faux" height="37.81818181818182" width="124.04810794954531" x="207.15987092989144" y="381.09090909090907"></rect>
<rect class="cjs" height="37.81818181818182" width="660.7920211205632" x="331.2079788794367" y="381.09090909090907"></rect>
<text text-anchor="middle" transform="translate(83.67497799941331, 400) rotate(-45)">10.8%</text>
<text text-anchor="middle" transform="translate(171.25491346435905, 400) rotate(-45)">7.5%</text>
<text text-anchor="middle" transform="translate(269.1839249046641, 400) rotate(-45)">12.9%</text>
<text text-anchor="middle" transform="translate(661.6039894397184, 400)">68.8%</text>
<text x="1023.9999999999999" y="400">2023-11-22</text>
</g><g>
<rect class="esm" height="37.81818181818182" width="111.65009940357852" x="32" y="450.9090909090909"></rect>
<rect class="dual" height="37.81818181818182" width="100.33513206475433" x="143.6500994035785" y="450.9090909090909"></rect>
<rect class="faux" height="37.81818181818182" width="112.60437375745526" x="243.98523146833284" y="450.9090909090909"></rect>
<rect class="cjs" height="37.81818181818182" width="635.4103947742118" x="356.5896052257881" y="450.9090909090909"></rect>
<text text-anchor="middle" transform="translate(87.82504970178925, 469.8181818181818) rotate(-45)">11.6%</text>
<text text-anchor="middle" transform="translate(193.8176654359557, 469.8181818181818) rotate(-45)">10.5%</text>
<text text-anchor="middle" transform="translate(300.28741834706045, 469.8181818181818) rotate(-45)">11.7%</text>
<text text-anchor="middle" transform="translate(674.294802612894, 469.8181818181818)">66.2%</text>
<text x="1023.9999999999999" y="469.8181818181818">2024-05-27</text>
</g><g>
<rect class="esm" height="37.81818181818182" width="111.82391492518857" x="32" y="520.7272727272727"></rect>
<rect class="dual" height="37.81818181818182" width="136.7528131569185" x="143.82391492518857" y="520.7272727272727"></rect>
<rect class="faux" height="37.81818181818182" width="100.0717200445159" x="280.5767280821071" y="520.7272727272727"></rect>
<rect class="cjs" height="37.81818181818182" width="611.351551873377" x="380.64844812662295" y="520.7272727272727"></rect>
<text text-anchor="middle" transform="translate(87.91195746259429, 539.6363636363636) rotate(-45)">11.6%</text>
<text text-anchor="middle" transform="translate(212.20032150364784, 539.6363636363636)">14.2%</text>
<text text-anchor="middle" transform="translate(330.61258810436505, 539.6363636363636) rotate(-45)">10.4%</text>
<text text-anchor="middle" transform="translate(686.3242240633115, 539.6363636363636)">63.7%</text>
<text x="1024" y="539.6363636363636">2024-11-27</text>
</g><g>
<rect class="esm" height="37.81818181818182" width="110.08413045983635" x="32" y="590.5454545454546"></rect>
<rect class="dual" height="37.81818181818182" width="174.032499711882" x="142.08413045983633" y="590.5454545454546"></rect>
<rect class="faux" height="37.81818181818182" width="95.03745534170797" x="316.1166301717183" y="590.5454545454546"></rect>
<rect class="cjs" height="37.81818181818182" width="580.8459144865737" x="411.1540855134263" y="590.5454545454546"></rect>
<text text-anchor="middle" transform="translate(87.04206522991817, 609.4545454545455) rotate(-45)">11.5%</text>
<text text-anchor="middle" transform="translate(229.10038031577733, 609.4545454545455)">18.1%</text>
<text text-anchor="middle" transform="translate(363.6353578425723, 609.4545454545455) rotate(-45)">9.9%</text>
<text text-anchor="middle" transform="translate(701.5770427567131, 609.4545454545455)">60.5%</text>
<text x="1024" y="609.4545454545455">2025-06-05</text>
</g><g>
<rect class="esm" height="37.81818181818182" width="120.61868776043505" x="32" y="660.3636363636365"></rect>
<rect class="dual" height="37.81818181818182" width="199.81072109612262" x="152.61868776043505" y="660.3636363636365"></rect>
<rect class="faux" height="37.81818181818182" width="103.19372837064765" x="352.42940885655764" y="660.3636363636365"></rect>
<rect class="cjs" height="37.81818181818182" width="536.3768627727947" x="455.6231372272053" y="660.3636363636365"></rect>
<text text-anchor="middle" transform="translate(92.30934388021753, 679.2727272727274) rotate(-45)">12.6%</text>
<text text-anchor="middle" transform="translate(252.52404830849636, 679.2727272727274)">20.8%</text>
<text text-anchor="middle" transform="translate(404.0262730418815, 679.2727272727274) rotate(-45)">10.7%</text>
<text text-anchor="middle" transform="translate(723.8115686136026, 679.2727272727274)">55.9%</text>
<text x="1024" y="679.2727272727274">2025-12-04</text>
</g><g>
<rect class="esm" height="37.81818181818182" width="153.18834329369724" x="32" y="730.1818181818184"></rect>
<rect class="dual" height="37.81818181818182" width="211.38808452960384" x="185.18834329369724" y="730.1818181818184"></rect>
<rect class="faux" height="37.81818181818182" width="99.89772657260797" x="396.57642782330106" y="730.1818181818184"></rect>
<rect class="cjs" height="37.81818181818182" width="495.52584560409093" x="496.474154395909" y="730.1818181818184"></rect>
<text text-anchor="middle" transform="translate(108.59417164684862, 749.0909090909092)">16.0%</text>
<text text-anchor="middle" transform="translate(290.88238555849915, 749.0909090909092)">22.0%</text>
<text text-anchor="middle" transform="translate(446.52529110960506, 749.0909090909092) rotate(-45)">10.4%</text>
<text text-anchor="middle" transform="translate(744.2370771979545, 749.0909090909092)">51.6%</text>
<text x="1024" y="749.0909090909092">2026-06-08</text>
</g>
<g>
<rect class="esm" height="37.81818181818182" width="96" x="32" y="800.0000000000002"></rect>
<rect class="dual" height="37.81818181818182" width="96" x="160" y="800.0000000000002"></rect>
<rect class="faux" height="37.81818181818182" width="96" x="288" y="800.0000000000002"></rect>
<rect class="cjs" height="37.81818181818182" width="96" x="416" y="800.0000000000002"></rect>
<text text-anchor="middle" transform="translate(80, 818.9090909090911)">esm</text>
<text text-anchor="middle" transform="translate(208, 818.9090909090911)">dual</text>
<text text-anchor="middle" transform="translate(336, 818.9090909090911)">faux</text>
<text text-anchor="middle" transform="translate(464, 818.9090909090911)">cjs</text></g>
</g>
</svg>
